PakTest Plain.ufo
<glyph name="A" format="1">
  <advance width="1038"/>
  <unicode hex="0041"/>
  <outline>
    <contour>
      <point x="0" y="0" type="line"/>
      <point x="803" y="1000" type="line"/>
      <point x="903" y="1000" type="line"/>
      <point x="100" y="0" type="line"/>
    </contour>
  </outline>
</glyph>
<glyph name="B" format="1">
  <advance width="1038"/>
  <unicode hex="0042"/>
  <outline>
    <contour>
      <point x="503" y="750" type="line"/>
      <point x="503" y="650" type="line"/>
      <point x="903" y="650" type="line"/>
      <point x="903" y="500" type="line"/>
      <point x="503" y="500" type="line"/>
      <point x="503" y="400" type="line"/>
      <point x="903" y="400" type="line"/>
      <point x="903" y="200" type="line"/>
      <point x="503" y="200" type="line"/>
      <point x="503" y="100" type="line"/>
      <point x="903" y="100" type="line"/>
      <point x="903" y="0" type="line"/>
      <point x="0" y="0" type="line"/>
      <point x="0" y="1000" type="line"/>
      <point x="903" y="1000" type="line"/>
      <point x="903" y="950" type="line"/>
      <point x="503" y="950" type="line"/>
      <point x="503" y="850" type="line"/>
      <point x="903" y="850" type="line"/>
      <point x="903" y="750" type="line"/>
    </contour>
  </outline>
</glyph>
<glyph name="C" format="1">
  <advance width="1038"/>
  <unicode hex="0043"/>
  <outline>
    <contour>
      <point x="903" y="1000" type="line"/>
      <point x="626" y="1000"/>
      <point x="200" y="888"/>
      <point x="200" y="500" type="curve" smooth="yes"/>
      <point x="200" y="112"/>
      <point x="626" y="0"/>
      <point x="903" y="0" type="curve"/>
      <point x="0" y="0" type="line"/>
      <point x="0" y="1000" type="line"/>
    </contour>
  </outline>
</glyph>
<glyph name="D" format="1">
  <advance width="1038"/>
  <unicode hex="0044"/>
  <outline>
    <contour>
      <point x="200" y="500" type="line"/>
      <point x="200" y="112"/>
      <point x="626" y="0"/>
      <point x="903" y="0" type="curve"/>
      <point x="0" y="0" type="line"/>
      <point x="0" y="1000" type="line"/>
      <point x="903" y="1000" type="line"/>
      <point x="903" y="850" type="line"/>
      <point x="753" y="850" type="line"/>
      <point x="753" y="950" type="line"/>
      <point x="453" y="950" type="line"/>
      <point x="453" y="650" type="line"/>
      <point x="753" y="650" type="line"/>
      <point x="753" y="760" type="line"/>
      <point x="853" y="760" type="line"/>
      <point x="853" y="500" type="line"/>
    </contour>
  </outline>
</glyph>
<glyph name="E" format="1">
  <advance width="535"/>
  <unicode hex="0045"/>
  <outline>
    <contour>
      <point x="0" y="1000" type="line"/>
      <point x="400" y="1000" type="line"/>
      <point x="400" y="950" type="line"/>
      <point x="0" y="950" type="line"/>
    </contour>
  </outline>
</glyph>
<glyph name="F" format="1">
  <advance width="185"/>
  <unicode hex="0046"/>
  <outline>
    <contour>
      <point x="50" y="400" type="line"/>
      <point x="0" y="400" type="line"/>
      <point x="0" y="450" type="line"/>
      <point x="50" y="450" type="line"/>
    </contour>
  </outline>
</glyph>
<glyph name="G" format="1">
  <advance width="435"/>
  <unicode hex="0047"/>
  <outline>
    <contour>
      <point x="300" y="100" type="line"/>
      <point x="0" y="100" type="line"/>
      <point x="0" y="400" type="line"/>
      <point x="0" y="450" type="line"/>
      <point x="50" y="450" type="line"/>
      <point x="50" y="400" type="line"/>
      <point x="300" y="400" type="line"/>
    </contour>
  </outline>
</glyph>
<glyph name="H" format="1">
  <advance width="635"/>
  <unicode hex="0048"/>
  <outline>
    <contour>
      <point x="500" y="1000" type="line"/>
      <point x="300" y="900" type="line"/>
      <point x="300" y="0" type="line"/>
      <point x="0" y="0" type="line"/>
      <point x="200" y="100" type="line"/>
      <point x="200" y="1000" type="line"/>
    </contour>
  </outline>
</glyph>
<glyph name="I" format="1">
  <advance width="335"/>
  <unicode hex="0049"/>
  <outline>
    <contour>
      <point x="0" y="0" type="line"/>
      <point x="0" y="1000" type="line"/>
      <point x="200" y="1000" type="line"/>
      <point x="200" y="0" type="line"/>
    </contour>
  </outline>
</glyph>
<glyph name="J" format="1">
  <advance width="435"/>
  <unicode hex="004A"/>
  <outline>
    <contour>
      <point x="0" y="1000" type="line"/>
      <point x="300" y="1000" type="line"/>
      <point x="300" y="0" type="line"/>
      <point x="0" y="0" type="line"/>
      <point x="200" y="100" type="line"/>
      <point x="200" y="900" type="line"/>
    </contour>
  </outline>
</glyph>
<glyph name="K" format="1">
  <advance width="635"/>
  <unicode hex="004B"/>
  <outline>
    <contour>
      <point x="300" y="900" type="line"/>
      <point x="300" y="550" type="line"/>
      <point x="500" y="500" type="line"/>
      <point x="300" y="450" type="line"/>
      <point x="300" y="100" type="line"/>
      <point x="500" y="0" type="line"/>
      <point x="0" y="0" type="line"/>
      <point x="200" y="100" type="line"/>
      <point x="200" y="900" type="line"/>
      <point x="0" y="1000" type="line"/>
      <point x="500" y="1000" type="line"/>
    </contour>
  </outline>
</glyph>
<glyph name="L" format="1">
  <advance width="1038"/>
  <unicode hex="004C"/>
  <outline>
    <contour>
      <point x="903" y="200" type="line"/>
      <point x="903" y="0" type="line"/>
      <point x="0" y="0" type="line"/>
      <point x="0" y="1000" type="line"/>
      <point x="200" y="1000" type="line"/>
      <point x="200" y="200" type="line"/>
    </contour>
  </outline>
</glyph>
<glyph name="M" format="1">
  <advance width="535"/>
  <unicode hex="004D"/>
  <outline>
    <contour>
      <point x="0" y="550" type="line"/>
      <point x="400" y="550" type="line"/>
      <point x="400" y="500" type="line"/>
      <point x="0" y="500" type="line"/>
    </contour>
  </outline>
</glyph>
<glyph name="N" format="1">
  <advance width="1038"/>
  <unicode hex="004E"/>
  <outline>
    <contour>
      <point x="226" y="500" type="curve" smooth="yes"/>
      <point x="226" y="362"/>
      <point x="327" y="250"/>
      <point x="451" y="250" type="curve" smooth="yes"/>
      <point x="576" y="250"/>
      <point x="677" y="362"/>
      <point x="677" y="500" type="curve" smooth="yes"/>
      <point x="677" y="638"/>
      <point x="576" y="750"/>
      <point x="451" y="750" type="curve" smooth="yes"/>
      <point x="327" y="750"/>
      <point x="226" y="638"/>
    </contour>
    <contour>
      <point x="0" y="500" type="curve" smooth="yes"/>
      <point x="0" y="776"/>
      <point x="202" y="1000"/>
      <point x="451" y="1000" type="curve" smooth="yes"/>
      <point x="700" y="1000"/>
      <point x="903" y="776"/>
      <point x="903" y="500" type="curve" smooth="yes"/>
      <point x="903" y="224"/>
      <point x="700" y="0"/>
      <point x="451" y="0" type="curve" smooth="yes"/>
      <point x="202" y="0"/>
      <point x="0" y="224"/>
    </contour>
  </outline>
</glyph>
<glyph name="O" format="1">
  <advance width="1038"/>
  <unicode hex="004F"/>
  <outline>
    <contour>
      <point x="200" y="200" type="line"/>
      <point x="703" y="200" type="line"/>
      <point x="703" y="800" type="line"/>
      <point x="200" y="800" type="line"/>
    </contour>
    <contour>
      <point x="0" y="0" type="line"/>
      <point x="0" y="1000" type="line"/>
      <point x="903" y="1000" type="line"/>
      <point x="903" y="0" type="line"/>
    </contour>
  </outline>
</glyph>
<glyph name="P" format="1">
  <advance width="587"/>
  <unicode hex="0050"/>
  <outline>
    <contour>
      <point x="0" y="500" type="curve" smooth="yes"/>
      <point x="0" y="638"/>
      <point x="101" y="750"/>
      <point x="226" y="750" type="curve" smooth="yes"/>
      <point x="350" y="750"/>
      <point x="451" y="638"/>
      <point x="451" y="500" type="curve" smooth="yes"/>
      <point x="451" y="362"/>
      <point x="350" y="250"/>
      <point x="226" y="250" type="curve" smooth="yes"/>
      <point x="101" y="250"/>
      <point x="0" y="362"/>
    </contour>
    <contour>
      <point x="113" y="500" type="curve" smooth="yes"/>
      <point x="113" y="431"/>
      <point x="163" y="375"/>
      <point x="226" y="375" type="curve" smooth="yes"/>
      <point x="288" y="375"/>
      <point x="338" y="431"/>
      <point x="338" y="500" type="curve" smooth="yes"/>
      <point x="338" y="569"/>
      <point x="288" y="625"/>
      <point x="226" y="625" type="curve" smooth="yes"/>
      <point x="163" y="625"/>
      <point x="113" y="569"/>
    </contour>
  </outline>
</glyph>
<glyph name="T" format="1">
  <advance width="1038"/>
  <unicode hex="0054"/>
  <outline>
    <contour>
      <point x="351" y="800" type="line"/>
      <point x="0" y="800" type="line"/>
      <point x="0" y="1000" type="line"/>
      <point x="903" y="1000" type="line"/>
      <point x="903" y="800" type="line"/>
      <point x="551" y="800" type="line"/>
      <point x="551" y="0" type="line"/>
      <point x="351" y="0" type="line"/>
    </contour>
  </outline>
</glyph>
<glyph name="U" format="1">
  <advance width="1038"/>
  <unicode hex="0055"/>
  <outline>
    <contour>
      <point x="351" y="400" type="line"/>
      <point x="0" y="400" type="line"/>
      <point x="0" y="600" type="line"/>
      <point x="351" y="600" type="line"/>
      <point x="351" y="1000" type="line"/>
      <point x="551" y="1000" type="line"/>
      <point x="551" y="600" type="line"/>
      <point x="903" y="600" type="line"/>
      <point x="903" y="400" type="line"/>
      <point x="551" y="400" type="line"/>
      <point x="551" y="0" type="line"/>
      <point x="351" y="0" type="line"/>
    </contour>
  </outline>
</glyph>
<glyph name="W" format="1">
  <advance width="1038"/>
  <unicode hex="0057"/>
  <outline>
    <contour>
      <point x="903" y="700" type="line"/>
      <point x="603" y="700" type="line"/>
      <point x="603" y="400" type="line"/>
      <point x="803" y="400" type="line"/>
    </contour>
    <contour>
      <point x="903" y="700" type="line"/>
      <point x="903" y="1000" type="line"/>
      <point x="0" y="1000" type="line"/>
      <point x="0" y="0" type="line"/>
      <point x="903" y="0" type="line"/>
    </contour>
  </outline>
</glyph>
<glyph name="X" format="1">
  <advance width="1038"/>
  <unicode hex="0058"/>
  <outline>
    <contour>
      <point x="903" y="400" type="line"/>
      <point x="603" y="400" type="line"/>
      <point x="603" y="700" type="line"/>
      <point x="903" y="700" type="line"/>
    </contour>
  </outline>
</glyph>
<glyph name="Y" format="1">
  <advance width="935"/>
  <unicode hex="0059"/>
  <outline>
    <contour>
      <point x="400" y="400" type="line"/>
      <point x="400" y="250" type="line"/>
      <point x="200" y="250" type="line"/>
      <point x="200" y="400" type="line"/>
    </contour>
  </outline>
</glyph>
<glyph name="Z" format="1">
  <advance width="935"/>
  <unicode hex="005A"/>
  <outline>
    <contour>
      <point x="200" y="250" type="line"/>
      <point x="200" y="400" type="line"/>
      <point x="400" y="400" type="line"/>
      <point x="400" y="250" type="line"/>
    </contour>
  </outline>
</glyph>
